<svg width="389" height="502" viewBox="0 0 389 502" fill="none" xmlns="http://www.w3.org/2000/svg">
<rect x="10.0173" y="143.324" width="310.78" height="279.896" rx="29.5" transform="rotate(-11.4425 10.0173 143.324)" fill="white" stroke="black" stroke-width="17"/>
<rect x="270.175" y="166.297" width="82.062" height="139.072" rx="29.5" transform="rotate(-11.4425 270.175 166.297)" fill="white" stroke="black" stroke-width="17"/>
<path d="M190.009 320.535L186.185 302.946L206.119 298.612L209.943 316.201L190.009 320.535ZM164.548 203.42L160.725 185.831L180.659 181.498L184.483 199.087L164.548 203.42ZM197.414 305.877C189.841 307.523 182.771 307.602 176.205 306.113C169.628 304.575 163.901 301.65 159.024 297.338C154.136 292.977 150.414 287.39 147.858 280.577L166.977 273.197C169.55 278.676 173.309 282.668 178.254 285.175C183.248 287.671 188.677 288.282 194.54 287.007C200.061 285.807 204.348 283.519 207.4 280.143C210.502 276.757 211.638 273.159 210.81 269.348C210.247 266.758 208.978 264.808 207.005 263.497C205.07 262.127 202.3 261.271 198.695 260.929L170.852 258.539C154.794 257.169 145.273 249.62 142.288 235.89C140.886 229.441 141.184 223.517 143.183 218.12C145.231 212.711 148.764 208.131 153.781 204.38C158.837 200.569 165.181 197.859 172.814 196.251C179.822 194.83 186.303 194.751 192.258 196.015C198.201 197.23 203.48 199.741 208.094 203.548C212.747 207.295 216.615 212.261 219.699 218.447L199.975 226.573C198.612 223.595 196.746 221.135 194.38 219.193C192.003 217.203 189.278 215.851 186.207 215.137C183.173 214.364 179.96 214.295 176.568 214.93C173.322 215.533 170.491 216.635 168.076 218.234C165.709 219.823 163.946 221.716 162.786 223.912C161.665 226.049 161.354 228.266 161.853 230.563C162.405 233.103 163.958 235.068 166.511 236.457C169.054 237.798 172.814 238.618 177.792 238.917L197.554 240.147C207.47 240.806 214.979 242.985 220.082 246.686C225.234 250.375 228.632 256.007 230.279 263.58C231.723 270.225 231.307 276.43 229.03 282.195C226.753 287.961 222.893 292.919 217.45 297.07C212.057 301.21 205.378 304.146 197.414 305.877Z" fill="black"/>
<circle cx="325" cy="226" r="15" fill="black"/>
</svg>
