<svg width="402" height="105" viewBox="0 0 402 105" fill="none" xmlns="http://www.w3.org/2000/svg">
<rect x="12" y="14" width="72" height="72" rx="22" fill="#33FF00" fill-opacity="0.41" stroke="black" stroke-width="4"/>
<path d="M107.83 75L107.9 24.6H116.44V55.4L130.265 37.2H140.8L126.135 56.1L142.06 75H130.895L116.44 56.8V75H107.83ZM171.711 75V56.8C171.711 55.61 171.629 54.2917 171.466 52.845C171.303 51.3983 170.918 50.01 170.311 48.68C169.728 47.3267 168.841 46.2183 167.651 45.355C166.484 44.4917 164.898 44.06 162.891 44.06C161.818 44.06 160.756 44.235 159.706 44.585C158.656 44.935 157.699 45.5417 156.836 46.405C155.996 47.245 155.319 48.4117 154.806 49.905C154.293 51.375 154.036 53.265 154.036 55.575L149.031 53.44C149.031 50.22 149.649 47.3033 150.886 44.69C152.146 42.0767 153.989 40 156.416 38.46C158.843 36.8967 161.829 36.115 165.376 36.115C168.176 36.115 170.486 36.5817 172.306 37.515C174.126 38.4483 175.573 39.6383 176.646 41.085C177.719 42.5317 178.513 44.0717 179.026 45.705C179.539 47.3383 179.866 48.89 180.006 50.36C180.169 51.8067 180.251 52.985 180.251 53.895V75H171.711ZM145.496 75V24.6H153.021V51.13H154.036V75H145.496ZM206.569 76.05C202.743 76.05 199.383 75.2217 196.489 73.565C193.596 71.9083 191.333 69.61 189.699 66.67C188.089 63.73 187.284 60.3467 187.284 56.52C187.284 52.39 188.078 48.8083 189.664 45.775C191.251 42.7183 193.456 40.35 196.279 38.67C199.103 36.99 202.369 36.15 206.079 36.15C209.999 36.15 213.324 37.0717 216.054 38.915C218.808 40.735 220.849 43.3133 222.179 46.65C223.509 49.9867 224.011 53.9183 223.684 58.445H215.319V55.365C215.296 51.2583 214.573 48.26 213.149 46.37C211.726 44.48 209.486 43.535 206.429 43.535C202.976 43.535 200.409 44.6083 198.729 46.755C197.049 48.8783 196.209 51.9933 196.209 56.1C196.209 59.9267 197.049 62.89 198.729 64.99C200.409 67.09 202.859 68.14 206.079 68.14C208.156 68.14 209.941 67.685 211.434 66.775C212.951 65.8417 214.118 64.5 214.934 62.75L223.264 65.27C221.818 68.6767 219.578 71.325 216.544 73.215C213.534 75.105 210.209 76.05 206.569 76.05ZM193.549 58.445V52.075H219.554V58.445H193.549ZM253.649 75C251.152 75.4667 248.702 75.665 246.299 75.595C243.919 75.5483 241.784 75.1167 239.894 74.3C238.004 73.46 236.569 72.1417 235.589 70.345C234.725 68.7117 234.27 67.0433 234.224 65.34C234.177 63.6367 234.154 61.7117 234.154 59.565V26.7H242.554V59.075C242.554 60.5917 242.565 61.9217 242.589 63.065C242.635 64.2083 242.88 65.1417 243.324 65.865C244.164 67.265 245.505 68.0467 247.349 68.21C249.192 68.3733 251.292 68.28 253.649 67.93V75ZM227.294 43.815V37.2H253.649V43.815H227.294ZM262.477 31.46V23.725H270.912V31.46H262.477ZM262.477 75V37.2H270.912V75H262.477ZM282.796 75V66.355H291.441V75H282.796ZM313.226 76.05C310.496 76.05 308.186 75.5367 306.296 74.51C304.406 73.46 302.971 72.0717 301.991 70.345C301.034 68.6183 300.556 66.7167 300.556 64.64C300.556 62.82 300.859 61.1867 301.466 59.74C302.073 58.27 303.006 57.01 304.266 55.96C305.526 54.8867 307.159 54.0117 309.166 53.335C310.683 52.845 312.456 52.4017 314.486 52.005C316.539 51.6083 318.756 51.2467 321.136 50.92C323.539 50.57 326.048 50.1967 328.661 49.8L325.651 51.515C325.674 48.9017 325.091 46.9767 323.901 45.74C322.711 44.5033 320.704 43.885 317.881 43.885C316.178 43.885 314.533 44.2817 312.946 45.075C311.359 45.8683 310.251 47.2333 309.621 49.17L301.921 46.755C302.854 43.5583 304.628 40.9917 307.241 39.055C309.878 37.1183 313.424 36.15 317.881 36.15C321.241 36.15 324.193 36.6983 326.736 37.795C329.303 38.8917 331.204 40.6883 332.441 43.185C333.118 44.515 333.526 45.88 333.666 47.28C333.806 48.6567 333.876 50.1617 333.876 51.795V75H326.491V66.81L327.716 68.14C326.013 70.87 324.018 72.8767 321.731 74.16C319.468 75.42 316.633 76.05 313.226 76.05ZM314.906 69.33C316.819 69.33 318.453 68.9917 319.806 68.315C321.159 67.6383 322.233 66.81 323.026 65.83C323.843 64.85 324.391 63.9283 324.671 63.065C325.114 61.9917 325.359 60.7667 325.406 59.39C325.476 57.99 325.511 56.8583 325.511 55.995L328.101 56.765C325.558 57.1617 323.376 57.5117 321.556 57.815C319.736 58.1183 318.173 58.41 316.866 58.69C315.559 58.9467 314.404 59.2383 313.401 59.565C312.421 59.915 311.593 60.3233 310.916 60.79C310.239 61.2567 309.714 61.7933 309.341 62.4C308.991 63.0067 308.816 63.7183 308.816 64.535C308.816 65.4683 309.049 66.2967 309.516 67.02C309.983 67.72 310.659 68.28 311.546 68.7C312.456 69.12 313.576 69.33 314.906 69.33ZM343.688 31.46V23.725H352.123V31.46H343.688ZM343.688 75V37.2H352.123V75H343.688Z" fill="black"/>
<path d="M32.0781 36.6234C35.8555 25.5021 50.3706 22.8404 57.8484 31.8977L70.2131 46.8743C77.5019 55.7027 72.6123 69.1131 61.3515 71.1781L42.7406 74.591C31.4799 76.656 22.15 65.8531 25.832 55.0128L32.0781 36.6234Z" fill="black"/>
<circle cx="48.5" cy="52.5" r="11.5" fill="white"/>
</svg>
