<svg width="493" height="528" viewBox="0 0 493 528" fill="none" xmlns="http://www.w3.org/2000/svg">
<rect x="8.66807" y="118.389" width="221" height="374.928" rx="31" transform="rotate(-13.3348 8.66807 118.389)" fill="white" stroke="black" stroke-width="14"/>
<path d="M165.246 319.573L161.005 302.079L180.83 297.273L185.072 314.766L165.246 319.573ZM137.006 203.097L132.765 185.604L152.591 180.797L156.832 198.29L137.006 203.097ZM172.3 304.743C164.769 306.569 157.703 306.816 151.103 305.483C144.492 304.102 138.696 301.314 133.718 297.119C128.727 292.876 124.874 287.379 122.157 280.629L141.094 272.796C143.797 278.212 147.65 282.114 152.653 284.502C157.705 286.879 163.147 287.36 168.978 285.946C174.469 284.615 178.7 282.226 181.672 278.779C184.692 275.32 185.742 271.695 184.823 267.905C184.199 265.33 182.884 263.41 180.88 262.147C178.913 260.823 176.123 260.033 172.511 259.777L144.619 258.051C128.534 257.063 118.836 249.742 115.525 236.088C113.97 229.673 114.127 223.744 115.997 218.3C117.916 212.845 121.338 208.182 126.265 204.312C131.229 200.382 137.507 197.522 145.099 195.733C152.071 194.145 158.549 193.913 164.532 195.034C170.503 196.108 175.84 198.492 180.543 202.188C185.283 205.824 189.269 210.697 192.499 216.808L172.974 225.4C171.54 222.455 169.617 220.04 167.205 218.156C164.781 216.222 162.025 214.935 158.937 214.295C155.886 213.594 152.673 213.601 149.296 214.317C146.066 214.998 143.262 216.166 140.885 217.823C138.557 219.468 136.84 221.402 135.733 223.625C134.662 225.788 134.404 228.012 134.957 230.296C135.57 232.822 137.169 234.75 139.755 236.078C142.329 237.358 146.107 238.088 151.09 238.269L170.876 239.028C180.805 239.45 188.365 241.451 193.554 245.029C198.792 248.595 202.323 254.144 204.15 261.676C205.752 268.284 205.483 274.498 203.344 280.315C201.204 286.133 197.464 291.182 192.122 295.461C186.828 299.729 180.221 302.822 172.3 304.743Z" fill="#33FF00" fill-opacity="0.41"/>
<rect x="272.086" y="28.7059" width="221" height="415" rx="31" transform="rotate(16.574 272.086 28.7059)" fill="white" stroke="black" stroke-width="14"/>
<path d="M289.064 349.178L294.36 331.975L313.857 337.977L308.561 355.18L289.064 349.178ZM324.327 234.633L329.623 217.43L349.12 223.432L343.824 240.635L324.327 234.633ZM302.708 340.038C295.301 337.757 289.101 334.358 284.11 329.839C279.133 325.273 275.577 319.914 273.442 313.764C271.322 307.566 270.82 300.872 271.934 293.682L292.215 296.629C291.769 302.665 293.086 307.988 296.166 312.598C299.294 317.223 303.725 320.418 309.459 322.184C314.859 323.846 319.717 323.955 324.033 322.511C328.397 321.082 331.152 318.503 332.3 314.776C333.08 312.243 332.931 309.922 331.854 307.812C330.84 305.668 328.846 303.564 325.872 301.497L302.782 285.757C289.461 276.686 284.867 265.436 289.001 252.008C290.943 245.7 294.109 240.685 298.499 236.962C302.936 233.253 308.261 230.995 314.474 230.187C320.749 229.346 327.607 230.097 335.047 232.44C341.851 234.639 347.537 237.75 352.106 241.772C356.69 245.747 360.058 250.524 362.211 256.105C364.427 261.652 365.362 267.878 365.015 274.781L343.842 272.187C344.114 268.922 343.695 265.864 342.586 263.011C341.491 260.111 339.78 257.596 337.453 255.467C335.189 253.305 332.423 251.669 329.155 250.558C326.031 249.492 323.024 249.063 320.134 249.272C317.293 249.496 314.828 250.281 312.739 251.626C310.714 252.938 309.355 254.717 308.664 256.963C307.899 259.448 308.288 261.922 309.832 264.385C311.39 266.8 314.264 269.359 318.455 272.062L335.073 282.828C343.391 288.266 348.865 293.849 351.497 299.576C354.176 305.319 354.375 311.894 352.095 319.301C350.094 325.8 346.688 331.003 341.875 334.909C337.063 338.816 331.267 341.244 324.488 342.191C317.757 343.153 310.497 342.435 302.708 340.038Z" fill="#33FF00" fill-opacity="0.41"/>
</svg>
